<svg id="Capa_1" enable-background="new 0 0 500.048 500.048" height="512" viewBox="0 0 500.048 500.048" width="512" xmlns="http://www.w3.org/2000/svg"><g><path d="m293.628 421.862h-92.888v57.076c0 11.658 9.451 21.109 21.109 21.109h50.67c11.658 0 21.109-9.451 21.109-21.109z" fill="#f9f3f1"/><path d="m247.151 484.988c-12.572 0-22.764-10.192-22.764-22.764v-40.362h-23.647v57.076c0 11.658 9.451 21.109 21.109 21.109h50.671c9.554 0 17.616-6.351 20.219-15.059z" fill="#f3eae6"/><g><path d="m323.088 300.264-2.601 33.043-3.212 32.495h-32.668v-34.489-50.936-23.388l41.179 21.409z" fill="#fed402"/></g><g><path d="m209.761 360.654h-33.366l-2.514-27.347-3.658-41.591-2.647-19.258 42.185-13.059z" fill="#fed402"/></g><g><path d="m262.027 268.708 67.733 35.004c9.182 4.745 20.472 1.148 25.217-8.033 4.745-9.182 1.148-20.472-8.033-25.217l-30.016-15.512-32.32-17.335-43.733 19.178z" fill="#fee97d"/><g><path d="m239.965 233.96-38.169-19.725-41.672-19.407-17.519 15.096v13.465l44.849 25.565 40.653 17.957 38.617-19.173z" fill="#fee97d"/><g><path d="m247.706 202.587 39.955 20.648 36.704 18.434 37.223-23.073-18.073-8.895-40.853-20.887-39.464-20.502-42.248 21.958z" fill="#fee97d"/></g></g><g><path d="m143.122 153.953c.083.14.204.254.349.329l46.161 23.856 33.07 17.457 42.711-20.359-22.604-11.747-38.17-19.726-36.911-16.767-27.319 22.368z" fill="#fee97d"/><g><path d="m247.706 132.993 39.955 20.649 32.418 17.429 40.491-22.142-17.055-8.822-40.853-20.886-39.899-18.211-41.762 17.982z" fill="#fee97d"/></g></g><g><g><path d="m145.188 85.576 44.261 22.874 37.668 17.492 48.255-15.511-32.532-16.52-38.17-19.726-36.911-19.764-27.313 28.191z" fill="#fee97d"/></g><g><path d="m247.706 63.4 39.955 20.648 36.584 14.359 35.006-20.377-17.359-8.346-39.231-20.057-30.584-19.312s-51.801 17.755-51.069 17.389c.733-.366 26.698 15.696 26.698 15.696z" fill="#fee97d"/></g></g><g id="XMLID_129_"><g fill="#fedf30"><path d="m366.214 223.305c.38 1.53.57 3.06.57 4.57 0 8.37-5.68 16-14.17 18.13l-196.09 49.14c-10.03 2.52-20.19-3.57-22.7-13.6-.38-1.53-.56-3.05-.56-4.56 0-8.38 5.67-16.01 14.16-18.14l196.09-49.14c10.03-2.52 20.19 3.57 22.7 13.6z"/><path d="m366.214 153.595c.38 1.53.57 3.06.57 4.57 0 8.37-5.68 16-14.17 18.13l-196.09 49.14c-10.03 2.52-20.19-3.57-22.7-13.6-.38-1.53-.56-3.05-.56-4.56 0-8.38 5.67-16.01 14.16-18.14l196.09-49.14c10.03-2.52 20.19 3.57 22.7 13.6z"/><path d="m366.214 83.885c.38 1.53.57 3.06.57 4.57 0 8.37-5.68 16-14.17 18.13l-196.09 49.14c-10.03 2.52-20.19-3.57-22.7-13.6-.38-1.53-.56-3.06-.56-4.56 0-8.39 5.67-16.01 14.16-18.14l196.09-49.15c10.03-2.51 20.19 3.58 22.7 13.61z"/><path d="m366.214 14.175c.38 1.53.57 3.06.57 4.57 0 8.37-5.68 16-14.17 18.13l-196.09 49.14c-10.03 2.52-20.19-3.57-22.7-13.6-.38-1.53-.56-3.06-.56-4.56 0-8.39 5.67-16.01 14.16-18.14l196.09-49.15c10.03-2.51 20.19 3.58 22.7 13.61z"/></g></g><path d="m317.275 398.914h-141.183v25.503c0 6.321 5.124 11.446 11.446 11.446h118.292c6.321 0 11.446-5.124 11.446-11.446v-25.503z" fill="#f9f3f1"/><path d="m212.224 420.379c-6.972 0-12.624-5.652-12.624-12.624v-8.84h-23.507v25.503c0 6.321 5.124 11.446 11.446 11.446h118.291c6.321 0 11.446-5.124 11.446-11.446v-4.038h-105.052z" fill="#f3eae6"/><path d="m323.806 333.355h-152.2c-10.885 0-19.708 8.824-19.708 19.708v32.143c0 10.885 8.824 19.708 19.708 19.708h152.2c10.885 0 19.708-8.824 19.708-19.708v-32.143c.001-10.884-8.823-19.708-19.708-19.708z" fill="#f9f3f1"/><path d="m215.449 387.039c-14.719 0-26.651-11.932-26.651-26.651v-25.2c0-.619.037-1.229.093-1.833h-17.285c-10.885 0-19.708 8.824-19.708 19.708v32.143c0 10.885 8.824 19.708 19.708 19.708h152.2c10.266 0 18.69-7.851 19.616-17.876h-127.973z" fill="#f3eae6"/><g><path d="m302.945 473.455h-111.561c-4.142 0-7.5-3.358-7.5-7.5s3.358-7.5 7.5-7.5h111.562c4.142 0 7.5 3.358 7.5 7.5s-3.359 7.5-7.501 7.5z" fill="#f3eae6"/></g></g></g></svg>